%
M48
M72
T01C0.02362
T02C0.03150
T03C0.19685
%
T01
X90916Y27091
X94578Y47957
X90522Y97169
X94184Y118035
X20837Y97169
X24499Y118035
X24499Y47957
X20837Y27091
T02
X5050Y9217
X5050Y56933
X5050Y79295
X5050Y127012
X74735Y127012
X74735Y79295
X75129Y56933
X75129Y9217
T03
X110719Y32996
X40641Y32996
X40641Y103075
X110326Y103075
M30
